<svg width="312.5" height="312.5" viewBox="0 0 312.5 312.5" class="css-1j8o68f"><g fill="#112864"><path xmlns="http://www.w3.org/2000/svg" d="M156.25 0A156.25 156.25 0 1 0 312.5 156.25 156.25 156.25 0 0 0 156.25 0zm0 293.188a137.5 137.5 0 1 1 137.5-137.5 137.5 137.5 0 0 1-137.5 137.437z"/><path xmlns="http://www.w3.org/2000/svg" d="M156.25 22.813a133.125 133.125 0 1 0 133.125 133.125A133.313 133.313 0 0 0 156.25 22.813z"/></g><path d="M56.045 162.267c-.384-2.947 1.666-6.919 6.279-10.763 4.1-3.46 7.303-4.1 9.481-4.1 2.948 0 2.691 3.203 1.41 2.69-1.666-.64-4.87-.128-8.97 2.948s-5.637 6.15-5.51 8.328c.13 2.691 4.101 3.844 8.33 3.332 9.481-1.025 30.367-10.635 39.464-15.504.641-.385 3.332-.257 1.282 1.153-9.61 6.15-31.265 15.12-39.978 16.4-6.022.898-11.147-.127-11.788-4.484zm51.766 4.1c-6.663.513-9.61-5.125-6.92-11.019 2.563-5.894 7.689-8.2 10.38-7.688 2.434.384 3.203 2.435 2.178 5.382-1.538 3.972-6.279 6.79-10.892 8.328.513 1.794 2.179 2.691 4.485 2.563 5.894-.513 14.095-4.613 37.287-14.735 1.665-.77 2.05.897 1.025 1.28-19.476 8.586-30.496 15.377-37.543 15.89zm-4.613-10.122c-.64 1.41-.897 2.563-.897 3.588 3.716-1.282 8.2-4.87 9.226-7.688.384-1.154.256-2.307-.641-2.563-1.41-.384-5.51 1.281-7.688 6.663zm47.665-23.577c-4.74 2.82-6.79 6.279-6.022 9.482.64 2.563 2.82 7.304 4.741 13.07 5.125-4.1 9.866-7.176 14.735-9.354.385-.256 1.922-.512 2.435-.384 1.025.384-.256.897-1.025 1.281-4.229 1.666-9.61 5.766-15.376 10.891 1.537 5.126 2.819 10.764 2.819 16.658 0 13.582-11.404 21.782-18.836 21.782-10.507 0-11.02-15.248 6.15-32.417a153.29 153.29 0 0 1 6.92-6.535c-1.666-4.997-3.716-9.738-4.613-13.454-1.922-7.047 2.69-12.557 6.535-12.942 2.947-.384 2.819 1.282 1.537 1.922zm0 39.978c0-4.228-1.153-8.713-2.562-13.07l-5.51 5.382c-15.504 15.632-15.248 28.958-9.738 28.958 8.2 0 17.81-9.482 17.81-21.27zm19.733 25.37c-1.666.385-2.819-4.74-2.69-14.223.255-7.816 2.177-34.724 6.021-55.353.897-4.74 1.794-8.97 2.691-12.813-24.986 0-27.292.128-27.805-1.794-.256-1.153 3.332-2.69 4.357-2.05 1.281.769 2.178 1.153 5.894 1.153l18.195.128c4.1-16.4 7.944-23.064 9.738-23.064 1.025 0 1.794 3.075 1.537 4.229-.384 1.537-.896-.641-2.306 2.434-.256.385-2.947 7.432-5.382 16.401 4.485 0 6.15.385 18.836.385 11.788 0 14.863-.641 15.248.768.256 1.538-6.022 1.41-15.632 1.41h-19.22c-1.153 4.613-2.307 9.482-3.075 14.223a542.322 542.322 0 0 0-4.741 30.88c-1.025 7.303-2.307 25.498-1.538 31.648.64 4.87 1.666 5.382-.128 5.638zm40.618-32.546c8.97 0 34.98-12.044 42.796-16.272.641-.385 3.332-.257 1.154 1.153-8.457 5.51-35.621 17.81-44.078 17.81-6.279 0-8.073-3.716-8.073-6.406s.513-3.973.257-4.229c-.385-.384-1.153-.256-5.254 1.922-3.716 2.178-7.816 3.844-9.097 3.844-1.794 0-3.075-1.153-3.075-1.922 0-2.434 1.537-5.766 6.406-9.353 4.1-3.204 6.663-3.844 8.841-3.844 2.948 0 4.741 4.612 3.46 4.612s-1.666-2.562-3.075-2.562c-1.281 0-3.844 1.025-7.432 3.46-3.331 2.178-5.894 5.893-5.894 6.918 0 .257.128.385.513.385 1.153 0 3.331-.897 6.919-2.691 4.869-2.306 8.072-4.1 9.61-4.1.512 0 1.665.256 1.665 1.153 0 1.025-1.28 3.331-1.28 6.278 0 2.179 2.306 3.844 5.637 3.844z" fill="#017bfe"/><path d="M107 212.425v-4.147c0-.162.123-.247.247-.247s.254.085.254.247v3.877h1.534c.17 0 .262.131.262.262s-.092.255-.262.255h-1.78a.25.25 0 0 1-.255-.247zm4.819-.023V208.3c0-.178.139-.27.27-.27h1.773c.17 0 .254.123.254.254s-.085.262-.254.262h-1.527v1.496h1.21c.178 0 .263.123.263.254s-.093.27-.262.27h-1.21v1.596h1.526c.162 0 .247.131.247.254 0 .131-.085.255-.247.255h-1.773c-.131 0-.27-.047-.27-.27zm7.34.062-.301-.98h-1.434l-.285.964c-.1.332-.61.231-.502-.108.401-1.349.794-2.721 1.188-4.086a.307.307 0 0 1 .293-.223c.115 0 .239.077.285.223l1.226 4.086c.084.293-.37.455-.47.124zm-1.026-3.392-.555 1.896h1.133c-.193-.648-.37-1.203-.578-1.896zm4.734 2.25v1.103c0 .17-.131.247-.254.247-.131 0-.255-.077-.255-.247v-4.14c0-.154.085-.254.255-.254h1.04c.293 0 1.218.085 1.218 1.125v.964c0 .586-.215.956-.709 1.118l.524 1.056c.108.208-.054.378-.223.378-.093 0-.208-.062-.27-.193l-.563-1.156h-.763zm1.496-1.202v-.964c0-.185-.07-.609-.71-.609h-.786v2.26h.717c.378 0 .779-.086.779-.687zm6.005-1.842v4.147c0 .162-.123.247-.247.247a.34.34 0 0 1-.27-.17c-.578-1.133-1.01-2.004-1.588-3.145v3.068c0 .162-.123.247-.254.247-.123 0-.254-.085-.254-.247v-4.147c0-.27.385-.286.47-.124l1.626 3.215v-3.091c0-.162.124-.247.255-.247s.262.085.262.247zm3.13 4.448c-.231 0-.408-.17-.408-.409s.177-.408.408-.408c.24 0 .416.17.416.408s-.177.409-.416.409zm6.893-.717c-.17-.316.262-.548.463-.232.1.162.4.44.879.44a.8.8 0 0 0 .77-.717c.047-.347-.285-.686-.855-.971-.802-.378-1.411-.71-1.411-1.373 0-.786.663-1.156 1.372-1.156a1.3 1.3 0 0 1 1.118.594c.177.285-.208.562-.424.285-.108-.139-.316-.37-.694-.37-.424 0-.863.2-.863.647 0 .355.393.555.979.833.686.34 1.403.67 1.295 1.573-.085.709-.624 1.164-1.287 1.164-.502 0-1.118-.27-1.342-.717zm5.343.416v-4.147c0-.162.124-.24.255-.24s.262.078.262.24v1.765H148v-1.765c0-.162.123-.247.246-.247s.255.085.255.247v4.147c0 .162-.131.247-.255.247s-.246-.085-.246-.247v-1.858h-1.75v1.858c0 .162-.131.247-.262.247s-.255-.085-.255-.247zm8.003.039-.301-.98h-1.434l-.285.964c-.1.332-.61.231-.501-.108.4-1.349.794-2.721 1.187-4.086a.307.307 0 0 1 .293-.223c.116 0 .239.077.285.223l1.226 4.086c.085.293-.37.455-.47.124zm-1.026-3.392-.555 1.896h1.134c-.193-.648-.37-1.203-.579-1.896zm4.734 2.25v1.103c0 .17-.13.247-.254.247-.131 0-.254-.077-.254-.247v-4.14c0-.154.084-.254.254-.254h1.04c.294 0 1.219.085 1.219 1.125v.964c0 .586-.216.956-.71 1.118l.525 1.056c.108.208-.054.378-.224.378-.092 0-.208-.062-.27-.193l-.562-1.156h-.764zm1.496-1.202v-.964c0-.185-.07-.609-.71-.609h-.786v2.26h.717c.378 0 .779-.086.779-.687zm3.377 2.282V208.3c0-.178.139-.27.27-.27h1.773c.17 0 .255.123.255.254s-.085.262-.255.262h-1.526v1.496h1.21c.177 0 .262.123.262.254s-.092.27-.262.27h-1.21v1.596h1.526c.162 0 .247.131.247.254 0 .131-.085.255-.247.255h-1.773c-.131 0-.27-.047-.27-.27zm5.235.324c-.231 0-.408-.17-.408-.409s.177-.408.408-.408c.24 0 .416.17.416.408s-.177.409-.416.409zm7.518-1.403v1.102c0 .17-.132.247-.255.247-.13 0-.254-.077-.254-.247v-4.14c0-.154.085-.254.254-.254h1.04c.294 0 1.219.085 1.219 1.125v.964c0 .586-.216.956-.71 1.118l.525 1.056c.108.208-.054.378-.224.378-.092 0-.208-.062-.27-.193l-.562-1.156h-.763zm1.495-1.203v-.964c0-.185-.07-.609-.71-.609h-.785v2.26h.716c.378 0 .78-.086.78-.687zm3.377 2.282V208.3c0-.178.14-.27.27-.27h1.773c.17 0 .255.123.255.254s-.085.262-.255.262h-1.526v1.496h1.21c.177 0 .262.123.262.254s-.092.27-.262.27h-1.21v1.596h1.526c.162 0 .247.131.247.254 0 .131-.085.255-.247.255h-1.773c-.13 0-.27-.047-.27-.27zm7.602-3.246v.964c0 .917-.478 1.21-1.288 1.21h-.717v1.095c0 .162-.13.247-.254.247-.131 0-.254-.085-.254-.247v-4.14c0-.146.123-.254.254-.254h1.04c.425 0 1.219.085 1.219 1.125zm-1.218-.609h-.787v2.26h.717c.378 0 .787-.093.779-.695l-.008-.956c0-.185-.03-.609-.701-.609zm3.809 3.855V208.3c0-.178.139-.27.27-.27h1.773c.17 0 .254.123.254.254s-.085.262-.254.262h-1.527v1.496h1.21c.178 0 .263.123.263.254s-.093.27-.262.27h-1.21v1.596h1.526c.162 0 .246.131.246.254 0 .131-.084.255-.246.255h-1.773c-.131 0-.27-.047-.27-.27zm7.34.062-.301-.98h-1.434l-.286.964c-.1.332-.609.231-.5-.108.4-1.349.793-2.721 1.187-4.086a.307.307 0 0 1 .292-.223c.116 0 .24.077.286.223l1.225 4.086c.085.293-.37.455-.47.124zm-1.026-3.392-.555 1.896h1.133c-.193-.648-.37-1.203-.578-1.896zm4.079-1.041h2.328c.162 0 .239.131.239.262s-.077.254-.24.254h-.878v3.878c0 .162-.131.247-.262.247s-.254-.085-.254-.247v-3.878h-.933c-.162 0-.24-.123-.24-.254s.078-.262.24-.262zm5.366 4.695c-.232 0-.409-.17-.409-.409s.177-.408.409-.408c.239 0 .416.17.416.408s-.177.409-.416.409z" fill="#2aa9f7"/></svg>